{
    "asset" : {
        "generator" : "Khronos glTF Blender I/O v1.6.16",
        "version" : "2.0"
    },
    "scene" : 0,
    "scenes" : [
        {
            "name" : "Scene",
            "nodes" : [
                0,
                1,
                2,
                3,
                4,
                5,
                6
            ]
        }
    ],
    "nodes" : [
        {
            "mesh" : 0,
            "name" : "D_1",
            "rotation" : [
                0.7071068286895752,
                0,
                0,
                0.7071067094802856
            ],
            "scale" : [
                0.011606978252530098,
                0.011606978252530098,
                0.011606978252530098
            ],
            "translation" : [
                0.0015143374912440777,
                0.9835951328277588,
                0.07474423944950104
            ]
        },
        {
            "mesh" : 1,
            "name" : "D_2",
            "rotation" : [
                0.7071068286895752,
                0,
                0,
                0.7071067094802856
            ],
            "scale" : [
                0.011606978252530098,
                0.011606978252530098,
                0.011606978252530098
            ],
            "translation" : [
                -0.0035878256894648075,
                -1.6811199188232422,
                -0.07216940820217133
            ]
        },
        {
            "mesh" : 2,
            "name" : "Shoes.001",
            "rotation" : [
                0.7071068286895752,
                0,
                0,
                0.7071067094802856
            ],
            "scale" : [
                0.011606978252530098,
                0.011606978252530098,
                0.011606978252530098
            ],
            "translation" : [
                0.00029690295923501253,
                -3.9908764362335205,
                0.11860353499650955
            ]
        },
        {
            "mesh" : 3,
            "name" : "Body.001",
            "rotation" : [
                0.7071068286895752,
                0,
                0,
                0.7071067094802856
            ],
            "scale" : [
                0.011606978252530098,
                0.011606978252530098,
                0.011606978252530098
            ]
        },
        {
            "mesh" : 4,
            "name" : "Brow",
            "rotation" : [
                0.7071068286895752,
                0,
                0,
                0.7071067094802856
            ],
            "scale" : [
                0.011606978252530098,
                0.011606978252530098,
                0.011606978252530098
            ],
            "translation" : [
                0.00031835155095905066,
                2.481919288635254,
                0.40820303559303284
            ]
        },
        {
            "mesh" : 5,
            "name" : "Eyes",
            "rotation" : [
                0.7071068286895752,
                0,
                0,
                0.7071067094802856
            ],
            "scale" : [
                0.011606978252530098,
                0.011606978252530098,
                0.011606978252530098
            ]
        },
        {
            "mesh" : 6,
            "name" : "Hair",
            "rotation" : [
                0.7071068286895752,
                0,
                0,
                0.7071067094802856
            ],
            "scale" : [
                0.011611510068178177,
                0.011611510068178177,
                0.011611510068178177
            ],
            "translation" : [
                -0.007555572781711817,
                2.7951629161834717,
                -0.026388097554445267
            ]
        }
    ],
    "materials" : [
        {
            "doubleSided" : true,
            "name" : "Material.006",
            "pbrMetallicRoughness" : {
                "baseColorFactor" : [
                    0.800000011920929,
                    0.800000011920929,
                    0.800000011920929,
                    1
                ],
                "metallicFactor" : 0,
                "roughnessFactor" : 0.5
            }
        },
        {
            "doubleSided" : true,
            "name" : "Material.005",
            "pbrMetallicRoughness" : {
                "baseColorFactor" : [
                    0.0010314254323020577,
                    0.0010314254323020577,
                    0.0010314254323020577,
                    1
                ],
                "metallicFactor" : 0,
                "roughnessFactor" : 0.5
            }
        },
        {
            "doubleSided" : true,
            "name" : "Material.007",
            "pbrMetallicRoughness" : {
                "baseColorFactor" : [
                    0.8000000715255737,
                    0.08513692766427994,
                    0.035327717661857605,
                    1
                ],
                "metallicFactor" : 0,
                "roughnessFactor" : 0.5
            }
        },
        {
            "doubleSided" : true,
            "name" : "Material.001",
            "pbrMetallicRoughness" : {
                "baseColorFactor" : [
                    0.8000000715255737,
                    0.7518500685691833,
                    0.33191171288490295,
                    1
                ],
                "metallicFactor" : 0,
                "roughnessFactor" : 0.5
            }
        },
        {
            "doubleSided" : true,
            "name" : "Material.003",
            "pbrMetallicRoughness" : {
                "baseColorFactor" : [
                    0,
                    0,
                    0,
                    1
                ],
                "metallicFactor" : 0,
                "roughnessFactor" : 0.5
            }
        },
        {
            "doubleSided" : true,
            "name" : "Eyes_A1.003",
            "pbrMetallicRoughness" : {
                "baseColorTexture" : {
                    "index" : 0
                },
                "metallicFactor" : 0.20000000298023224,
                "roughnessFactor" : 0.20000000298023224
            }
        },
        {
            "doubleSided" : true,
            "name" : "Material.004",
            "pbrMetallicRoughness" : {
                "baseColorFactor" : [
                    0,
                    0,
                    0,
                    1
                ],
                "metallicFactor" : 0,
                "roughnessFactor" : 0.5
            }
        }
    ],
    "meshes" : [
        {
            "name" : "mesh.004",
            "primitives" : [
                {
                    "attributes" : {
                        "POSITION" : 0,
                        "NORMAL" : 1,
                        "TEXCOORD_0" : 2
                    },
                    "indices" : 3,
                    "material" : 0
                }
            ]
        },
        {
            "name" : "Vucud.006",
            "primitives" : [
                {
                    "attributes" : {
                        "POSITION" : 4,
                        "NORMAL" : 5,
                        "TEXCOORD_0" : 6,
                        "TEXCOORD_1" : 7,
                        "TEXCOORD_2" : 8,
                        "TEXCOORD_3" : 9,
                        "COLOR_0" : 10
                    },
                    "indices" : 11,
                    "material" : 1
                }
            ]
        },
        {
            "name" : "Plane.005",
            "primitives" : [
                {
                    "attributes" : {
                        "POSITION" : 12,
                        "NORMAL" : 13,
                        "TEXCOORD_0" : 14
                    },
                    "indices" : 15,
                    "material" : 2
                }
            ]
        },
        {
            "name" : "Vucud",
            "primitives" : [
                {
                    "attributes" : {
                        "POSITION" : 16,
                        "NORMAL" : 17,
                        "TEXCOORD_0" : 18,
                        "TEXCOORD_1" : 19,
                        "TEXCOORD_2" : 20,
                        "TEXCOORD_3" : 21,
                        "COLOR_0" : 22
                    },
                    "indices" : 23,
                    "material" : 3
                }
            ]
        },
        {
            "name" : "Sphere.003",
            "primitives" : [
                {
                    "attributes" : {
                        "POSITION" : 24,
                        "NORMAL" : 25,
                        "TEXCOORD_0" : 26,
                        "TEXCOORD_1" : 27,
                        "COLOR_0" : 28
                    },
                    "indices" : 29,
                    "material" : 4
                }
            ]
        },
        {
            "name" : "Sphere.006",
            "primitives" : [
                {
                    "attributes" : {
                        "POSITION" : 30,
                        "NORMAL" : 31,
                        "TEXCOORD_0" : 32
                    },
                    "indices" : 33,
                    "material" : 5
                }
            ]
        },
        {
            "name" : "mesh.001",
            "primitives" : [
                {
                    "attributes" : {
                        "POSITION" : 34,
                        "NORMAL" : 35,
                        "TEXCOORD_0" : 36
                    },
                    "indices" : 37,
                    "material" : 6
                }
            ]
        }
    ],
    "textures" : [
        {
            "sampler" : 0,
            "source" : 0
        }
    ],
    "images" : [
        {
            "bufferView" : 34,
            "mimeType" : "image/png",
            "name" : "Atlas_1A"
        }
    ],
    "accessors" : [
        {
            "bufferView" : 0,
            "componentType" : 5126,
            "count" : 1738,
            "max" : [
                52.046104431152344,
                43.78889465332031,
                81.24066925048828
            ],
            "min" : [
                -52.30317306518555,
                -47.2744140625,
                -73.41988372802734
            ],
            "type" : "VEC3"
        },
        {
            "bufferView" : 1,
            "componentType" : 5126,
            "count" : 1738,
            "type" : "VEC3"
        },
        {
            "bufferView" : 2,
            "componentType" : 5126,
            "count" : 1738,
            "type" : "VEC2"
        },
        {
            "bufferView" : 3,
            "componentType" : 5123,
            "count" : 7317,
            "type" : "SCALAR"
        },
        {
            "bufferView" : 4,
            "componentType" : 5126,
            "count" : 1932,
            "max" : [
                64.74903869628906,
                45.54713439941406,
                158.20401000976562
            ],
            "min" : [
                -64.07964324951172,
                -37.47043991088867,
                -184.56756591796875
            ],
            "type" : "VEC3"
        },
        {
            "bufferView" : 5,
            "componentType" : 5126,
            "count" : 1932,
            "type" : "VEC3"
        },
        {
            "bufferView" : 6,
            "componentType" : 5126,
            "count" : 1932,
            "type" : "VEC2"
        },
        {
            "bufferView" : 7,
            "componentType" : 5126,
            "count" : 1932,
            "type" : "VEC2"
        },
        {
            "bufferView" : 8,
            "componentType" : 5126,
            "count" : 1932,
            "type" : "VEC2"
        },
        {
            "bufferView" : 9,
            "componentType" : 5126,
            "count" : 1932,
            "type" : "VEC2"
        },
        {
            "bufferView" : 10,
            "componentType" : 5123,
            "count" : 1932,
            "normalized" : true,
            "type" : "VEC4"
        },
        {
            "bufferView" : 11,
            "componentType" : 5123,
            "count" : 10668,
            "type" : "SCALAR"
        },
        {
            "bufferView" : 12,
            "componentType" : 5126,
            "count" : 3890,
            "max" : [
                52.15081024169922,
                41.60455322265625,
                16.8035888671875
            ],
            "min" : [
                -52.150814056396484,
                -50.430572509765625,
                -16.3839111328125
            ],
            "type" : "VEC3"
        },
        {
            "bufferView" : 13,
            "componentType" : 5126,
            "count" : 3890,
            "type" : "VEC3"
        },
        {
            "bufferView" : 14,
            "componentType" : 5126,
            "count" : 3890,
            "type" : "VEC2"
        },
        {
            "bufferView" : 15,
            "componentType" : 5123,
            "count" : 19440,
            "type" : "SCALAR"
        },
        {
            "bufferView" : 16,
            "componentType" : 5126,
            "count" : 7903,
            "max" : [
                282.1252746582031,
                49.527435302734375,
                353.41448974609375
            ],
            "min" : [
                -282.0704345703125,
                -39.644203186035156,
                -259.1233215332031
            ],
            "type" : "VEC3"
        },
        {
            "bufferView" : 17,
            "componentType" : 5126,
            "count" : 7903,
            "type" : "VEC3"
        },
        {
            "bufferView" : 18,
            "componentType" : 5126,
            "count" : 7903,
            "type" : "VEC2"
        },
        {
            "bufferView" : 19,
            "componentType" : 5126,
            "count" : 7903,
            "type" : "VEC2"
        },
        {
            "bufferView" : 20,
            "componentType" : 5126,
            "count" : 7903,
            "type" : "VEC2"
        },
        {
            "bufferView" : 21,
            "componentType" : 5126,
            "count" : 7903,
            "type" : "VEC2"
        },
        {
            "bufferView" : 22,
            "componentType" : 5123,
            "count" : 7903,
            "normalized" : true,
            "type" : "VEC4"
        },
        {
            "bufferView" : 23,
            "componentType" : 5123,
            "count" : 42102,
            "type" : "SCALAR"
        },
        {
            "bufferView" : 24,
            "componentType" : 5126,
            "count" : 656,
            "max" : [
                26.664852142333984,
                5.618431091308594,
                9.72747802734375
            ],
            "min" : [
                -26.66484832763672,
                -6.104803085327148,
                -5.44268798828125
            ],
            "type" : "VEC3"
        },
        {
            "bufferView" : 25,
            "componentType" : 5126,
            "count" : 656,
            "type" : "VEC3"
        },
        {
            "bufferView" : 26,
            "componentType" : 5126,
            "count" : 656,
            "type" : "VEC2"
        },
        {
            "bufferView" : 27,
            "componentType" : 5126,
            "count" : 656,
            "type" : "VEC2"
        },
        {
            "bufferView" : 28,
            "componentType" : 5123,
            "count" : 656,
            "normalized" : true,
            "type" : "VEC4"
        },
        {
            "bufferView" : 29,
            "componentType" : 5123,
            "count" : 3552,
            "type" : "SCALAR"
        },
        {
            "bufferView" : 30,
            "componentType" : 5126,
            "count" : 1284,
            "max" : [
                24.983108520507812,
                33.452056884765625,
                -195.64883422851562
            ],
            "min" : [
                -24.92821502685547,
                15.011822700500488,
                -215.92599487304688
            ],
            "type" : "VEC3"
        },
        {
            "bufferView" : 31,
            "componentType" : 5126,
            "count" : 1284,
            "type" : "VEC3"
        },
        {
            "bufferView" : 32,
            "componentType" : 5126,
            "count" : 1284,
            "type" : "VEC2"
        },
        {
            "bufferView" : 33,
            "componentType" : 5123,
            "count" : 6324,
            "type" : "SCALAR"
        },
        {
            "bufferView" : 35,
            "componentType" : 5126,
            "count" : 2689,
            "max" : [
                37.65754318237305,
                44.74637985229492,
                52.84028625488281
            ],
            "min" : [
                -36.71760177612305,
                -77.0634994506836,
                -41.29447937011719
            ],
            "type" : "VEC3"
        },
        {
            "bufferView" : 36,
            "componentType" : 5126,
            "count" : 2689,
            "type" : "VEC3"
        },
        {
            "bufferView" : 37,
            "componentType" : 5126,
            "count" : 2689,
            "type" : "VEC2"
        },
        {
            "bufferView" : 38,
            "componentType" : 5123,
            "count" : 8940,
            "type" : "SCALAR"
        }
    ],
    "bufferViews" : [
        {
            "buffer" : 0,
            "byteLength" : 20856,
            "byteOffset" : 0
        },
        {
            "buffer" : 0,
            "byteLength" : 20856,
            "byteOffset" : 20856
        },
        {
            "buffer" : 0,
            "byteLength" : 13904,
            "byteOffset" : 41712
        },
        {
            "buffer" : 0,
            "byteLength" : 14634,
            "byteOffset" : 55616
        },
        {
            "buffer" : 0,
            "byteLength" : 23184,
            "byteOffset" : 70252
        },
        {
            "buffer" : 0,
            "byteLength" : 23184,
            "byteOffset" : 93436
        },
        {
            "buffer" : 0,
            "byteLength" : 15456,
            "byteOffset" : 116620
        },
        {
            "buffer" : 0,
            "byteLength" : 15456,
            "byteOffset" : 132076
        },
        {
            "buffer" : 0,
            "byteLength" : 15456,
            "byteOffset" : 147532
        },
        {
            "buffer" : 0,
            "byteLength" : 15456,
            "byteOffset" : 162988
        },
        {
            "buffer" : 0,
            "byteLength" : 15456,
            "byteOffset" : 178444
        },
        {
            "buffer" : 0,
            "byteLength" : 21336,
            "byteOffset" : 193900
        },
        {
            "buffer" : 0,
            "byteLength" : 46680,
            "byteOffset" : 215236
        },
        {
            "buffer" : 0,
            "byteLength" : 46680,
            "byteOffset" : 261916
        },
        {
            "buffer" : 0,
            "byteLength" : 31120,
            "byteOffset" : 308596
        },
        {
            "buffer" : 0,
            "byteLength" : 38880,
            "byteOffset" : 339716
        },
        {
            "buffer" : 0,
            "byteLength" : 94836,
            "byteOffset" : 378596
        },
        {
            "buffer" : 0,
            "byteLength" : 94836,
            "byteOffset" : 473432
        },
        {
            "buffer" : 0,
            "byteLength" : 63224,
            "byteOffset" : 568268
        },
        {
            "buffer" : 0,
            "byteLength" : 63224,
            "byteOffset" : 631492
        },
        {
            "buffer" : 0,
            "byteLength" : 63224,
            "byteOffset" : 694716
        },
        {
            "buffer" : 0,
            "byteLength" : 63224,
            "byteOffset" : 757940
        },
        {
            "buffer" : 0,
            "byteLength" : 63224,
            "byteOffset" : 821164
        },
        {
            "buffer" : 0,
            "byteLength" : 84204,
            "byteOffset" : 884388
        },
        {
            "buffer" : 0,
            "byteLength" : 7872,
            "byteOffset" : 968592
        },
        {
            "buffer" : 0,
            "byteLength" : 7872,
            "byteOffset" : 976464
        },
        {
            "buffer" : 0,
            "byteLength" : 5248,
            "byteOffset" : 984336
        },
        {
            "buffer" : 0,
            "byteLength" : 5248,
            "byteOffset" : 989584
        },
        {
            "buffer" : 0,
            "byteLength" : 5248,
            "byteOffset" : 994832
        },
        {
            "buffer" : 0,
            "byteLength" : 7104,
            "byteOffset" : 1000080
        },
        {
            "buffer" : 0,
            "byteLength" : 15408,
            "byteOffset" : 1007184
        },
        {
            "buffer" : 0,
            "byteLength" : 15408,
            "byteOffset" : 1022592
        },
        {
            "buffer" : 0,
            "byteLength" : 10272,
            "byteOffset" : 1038000
        },
        {
            "buffer" : 0,
            "byteLength" : 12648,
            "byteOffset" : 1048272
        },
        {
            "buffer" : 0,
            "byteLength" : 603292,
            "byteOffset" : 1060920
        },
        {
            "buffer" : 0,
            "byteLength" : 32268,
            "byteOffset" : 1664212
        },
        {
            "buffer" : 0,
            "byteLength" : 32268,
            "byteOffset" : 1696480
        },
        {
            "buffer" : 0,
            "byteLength" : 21512,
            "byteOffset" : 1728748
        },
        {
            "buffer" : 0,
            "byteLength" : 17880,
            "byteOffset" : 1750260
        }
    ],
    "samplers" : [
        {
            "magFilter" : 9729,
            "minFilter" : 9987
        }
    ],
    "buffers" : [
        {
            "byteLength" : 1768140,
            "uri" : "data:application/octet-stream;base64,"
        }
    ]
}
