{
    "asset" : {
        "generator" : "Khronos glTF Blender I/O v1.6.16",
        "version" : "2.0"
    },
    "scene" : 0,
    "scenes" : [
        {
            "name" : "Scene",
            "nodes" : [
                0,
                1,
                2,
                3,
                4,
                5,
                6
            ]
        }
    ],
    "nodes" : [
        {
            "mesh" : 0,
            "name" : "Eyes.001",
            "rotation" : [
                0.7071068286895752,
                0,
                0,
                0.7071067094802856
            ],
            "scale" : [
                0.011609822511672974,
                0.011609822511672974,
                0.011609822511672974
            ],
            "translation" : [
                0.0003139551845379174,
                2.6552181243896484,
                0.2698307931423187
            ]
        },
        {
            "mesh" : 1,
            "name" : "Brown",
            "rotation" : [
                0.7071068286895752,
                0,
                0,
                0.7071067094802856
            ],
            "scale" : [
                0.011609822511672974,
                0.011609822511672974,
                0.011609822511672974
            ]
        },
        {
            "mesh" : 2,
            "name" : "T-shirt",
            "rotation" : [
                0.7071068286895752,
                0,
                0,
                0.7071067094802856
            ],
            "scale" : [
                0.011609822511672974,
                0.011609822511672974,
                0.011609822511672974
            ],
            "translation" : [
                0,
                1.6305921077728271,
                -0.054322365671396255
            ]
        },
        {
            "mesh" : 3,
            "name" : "Body",
            "rotation" : [
                0.7071068286895752,
                0,
                0,
                0.7071067094802856
            ],
            "scale" : [
                0.011609822511672974,
                0.011609822511672974,
                0.011609822511672974
            ]
        },
        {
            "mesh" : 4,
            "name" : "Trouser",
            "rotation" : [
                0.7071068286895752,
                0,
                0,
                0.7071067094802856
            ],
            "scale" : [
                0.011609822511672974,
                0.011609822511672974,
                0.011609822511672974
            ]
        },
        {
            "mesh" : 5,
            "name" : "Shoes",
            "rotation" : [
                0.7071068286895752,
                0,
                0,
                0.7071067094802856
            ],
            "scale" : [
                0.011609822511672974,
                0.011609822511672974,
                0.011609822511672974
            ],
            "translation" : [
                0.0002968168701045215,
                -3.7917351722717285,
                -0.08237723261117935
            ]
        },
        {
            "mesh" : 6,
            "name" : "Hair.001",
            "rotation" : [
                0.7071068286895752,
                0,
                0,
                0.7071067094802856
            ],
            "scale" : [
                0.009999999776482582,
                0.009999999776482582,
                0.009999999776482582
            ],
            "translation" : [
                0.014797534793615341,
                3.0026676654815674,
                -0.17403869330883026
            ]
        }
    ],
    "materials" : [
        {
            "doubleSided" : true,
            "name" : "Material.010",
            "pbrMetallicRoughness" : {
                "baseColorFactor" : [
                    0.8000000715255737,
                    0.7157228589057922,
                    0.762370765209198,
                    1
                ],
                "metallicFactor" : 0,
                "roughnessFactor" : 0.5
            }
        },
        {
            "doubleSided" : true,
            "name" : "Material.011",
            "pbrMetallicRoughness" : {
                "baseColorFactor" : [
                    0.0036419788375496864,
                    0.0036419788375496864,
                    0.0036419788375496864,
                    1
                ],
                "metallicFactor" : 0,
                "roughnessFactor" : 0.5
            }
        },
        {
            "doubleSided" : true,
            "name" : "facial_hair",
            "pbrMetallicRoughness" : {
                "baseColorFactor" : [
                    0.001031362684443593,
                    0.001031362684443593,
                    0.001031362684443593,
                    1
                ],
                "metallicFactor" : 0,
                "roughnessFactor" : 0.5
            }
        },
        {
            "doubleSided" : true,
            "name" : "shirt",
            "pbrMetallicRoughness" : {
                "baseColorFactor" : [
                    0.06195124611258507,
                    0.27948349714279175,
                    0.8000000715255737,
                    1
                ],
                "metallicFactor" : 0,
                "roughnessFactor" : 0.5
            }
        },
        {
            "doubleSided" : true,
            "name" : "Material.012",
            "pbrMetallicRoughness" : {
                "baseColorFactor" : [
                    0.8000000715255737,
                    0.7871004343032837,
                    0.5206077694892883,
                    1
                ],
                "metallicFactor" : 0,
                "roughnessFactor" : 0.5
            }
        },
        {
            "doubleSided" : true,
            "name" : "trouser",
            "pbrMetallicRoughness" : {
                "baseColorFactor" : [
                    0.023650333285331726,
                    0.00439264765009284,
                    0.00548540661111474,
                    1
                ],
                "metallicFactor" : 0,
                "roughnessFactor" : 0.5
            }
        },
        {
            "doubleSided" : true,
            "name" : "shouse",
            "pbrMetallicRoughness" : {
                "baseColorFactor" : [
                    0.09082755446434021,
                    0.02031632699072361,
                    0,
                    1
                ],
                "metallicFactor" : 0,
                "roughnessFactor" : 0.5
            }
        },
        {
            "doubleSided" : true,
            "name" : "hair",
            "pbrMetallicRoughness" : {
                "baseColorFactor" : [
                    0,
                    0,
                    0,
                    1
                ],
                "metallicFactor" : 0,
                "roughnessFactor" : 0.5
            }
        }
    ],
    "meshes" : [
        {
            "name" : "Sphere.002",
            "primitives" : [
                {
                    "attributes" : {
                        "POSITION" : 0,
                        "NORMAL" : 1,
                        "TEXCOORD_0" : 2,
                        "TEXCOORD_1" : 3,
                        "COLOR_0" : 4
                    },
                    "indices" : 5,
                    "material" : 0
                },
                {
                    "attributes" : {
                        "POSITION" : 6,
                        "NORMAL" : 7,
                        "TEXCOORD_0" : 8,
                        "TEXCOORD_1" : 9,
                        "COLOR_0" : 10
                    },
                    "indices" : 11,
                    "material" : 1
                }
            ]
        },
        {
            "name" : "Sphere.001",
            "primitives" : [
                {
                    "attributes" : {
                        "POSITION" : 12,
                        "NORMAL" : 13,
                        "TEXCOORD_0" : 14,
                        "TEXCOORD_1" : 15,
                        "COLOR_0" : 16
                    },
                    "indices" : 17,
                    "material" : 2
                }
            ]
        },
        {
            "name" : "mesh.002",
            "primitives" : [
                {
                    "attributes" : {
                        "POSITION" : 18,
                        "NORMAL" : 19,
                        "TEXCOORD_0" : 20
                    },
                    "indices" : 21,
                    "material" : 3
                }
            ]
        },
        {
            "name" : "Vucud.003",
            "primitives" : [
                {
                    "attributes" : {
                        "POSITION" : 22,
                        "NORMAL" : 23,
                        "TEXCOORD_0" : 24,
                        "TEXCOORD_1" : 25,
                        "TEXCOORD_2" : 26,
                        "TEXCOORD_3" : 27,
                        "COLOR_0" : 28
                    },
                    "indices" : 29,
                    "material" : 4
                }
            ]
        },
        {
            "name" : "mesh.003",
            "primitives" : [
                {
                    "attributes" : {
                        "POSITION" : 30,
                        "NORMAL" : 31,
                        "TEXCOORD_0" : 32
                    },
                    "indices" : 33,
                    "material" : 5
                }
            ]
        },
        {
            "name" : "shoe_dress_v2.003",
            "primitives" : [
                {
                    "attributes" : {
                        "POSITION" : 34,
                        "NORMAL" : 35,
                        "TEXCOORD_0" : 36
                    },
                    "indices" : 37,
                    "material" : 6
                }
            ]
        },
        {
            "name" : "Vucud.001",
            "primitives" : [
                {
                    "attributes" : {
                        "POSITION" : 38,
                        "NORMAL" : 39,
                        "TEXCOORD_0" : 40,
                        "TEXCOORD_1" : 41,
                        "COLOR_0" : 42
                    },
                    "indices" : 43,
                    "material" : 7
                }
            ]
        }
    ],
    "accessors" : [
        {
            "bufferView" : 0,
            "componentType" : 5126,
            "count" : 1292,
            "max" : [
                27.64346694946289,
                7.988187789916992,
                11.377609252929688
            ],
            "min" : [
                -27.643484115600586,
                -12.44477653503418,
                -11.090774536132812
            ],
            "type" : "VEC3"
        },
        {
            "bufferView" : 1,
            "componentType" : 5126,
            "count" : 1292,
            "type" : "VEC3"
        },
        {
            "bufferView" : 2,
            "componentType" : 5126,
            "count" : 1292,
            "type" : "VEC2"
        },
        {
            "bufferView" : 3,
            "componentType" : 5126,
            "count" : 1292,
            "type" : "VEC2"
        },
        {
            "bufferView" : 4,
            "componentType" : 5123,
            "count" : 1292,
            "normalized" : true,
            "type" : "VEC4"
        },
        {
            "bufferView" : 5,
            "componentType" : 5123,
            "count" : 6516,
            "type" : "SCALAR"
        },
        {
            "bufferView" : 6,
            "componentType" : 5126,
            "count" : 66,
            "max" : [
                20.25954818725586,
                7.531272888183594,
                3.9936370849609375
            ],
            "min" : [
                -20.259563446044922,
                7.277425765991211,
                -3.7068634033203125
            ],
            "type" : "VEC3"
        },
        {
            "bufferView" : 7,
            "componentType" : 5126,
            "count" : 66,
            "type" : "VEC3"
        },
        {
            "bufferView" : 8,
            "componentType" : 5126,
            "count" : 66,
            "type" : "VEC2"
        },
        {
            "bufferView" : 9,
            "componentType" : 5126,
            "count" : 66,
            "type" : "VEC2"
        },
        {
            "bufferView" : 10,
            "componentType" : 5123,
            "count" : 66,
            "normalized" : true,
            "type" : "VEC4"
        },
        {
            "bufferView" : 11,
            "componentType" : 5123,
            "count" : 192,
            "type" : "SCALAR"
        },
        {
            "bufferView" : 12,
            "componentType" : 5126,
            "count" : 827,
            "max" : [
                29.2899227142334,
                36.20769119262695,
                -228.0157470703125
            ],
            "min" : [
                -29.238754272460938,
                24.53767204284668,
                -243.08856201171875
            ],
            "type" : "VEC3"
        },
        {
            "bufferView" : 13,
            "componentType" : 5126,
            "count" : 827,
            "type" : "VEC3"
        },
        {
            "bufferView" : 14,
            "componentType" : 5126,
            "count" : 827,
            "type" : "VEC2"
        },
        {
            "bufferView" : 15,
            "componentType" : 5126,
            "count" : 827,
            "type" : "VEC2"
        },
        {
            "bufferView" : 16,
            "componentType" : 5123,
            "count" : 827,
            "normalized" : true,
            "type" : "VEC4"
        },
        {
            "bufferView" : 17,
            "componentType" : 5123,
            "count" : 4452,
            "type" : "SCALAR"
        },
        {
            "bufferView" : 18,
            "componentType" : 5126,
            "count" : 1823,
            "max" : [
                200.06448364257812,
                55.34817886352539,
                100.17567443847656
            ],
            "min" : [
                -200.06451416015625,
                -36.29532241821289,
                -50.43467712402344
            ],
            "type" : "VEC3"
        },
        {
            "bufferView" : 19,
            "componentType" : 5126,
            "count" : 1823,
            "type" : "VEC3"
        },
        {
            "bufferView" : 20,
            "componentType" : 5126,
            "count" : 1823,
            "type" : "VEC2"
        },
        {
            "bufferView" : 21,
            "componentType" : 5123,
            "count" : 9072,
            "type" : "SCALAR"
        },
        {
            "bufferView" : 22,
            "componentType" : 5126,
            "count" : 6129,
            "max" : [
                282.12530517578125,
                49.454185485839844,
                338.0802307128906
            ],
            "min" : [
                -282.0741271972656,
                -45.50558090209961,
                -282.12127685546875
            ],
            "type" : "VEC3"
        },
        {
            "bufferView" : 23,
            "componentType" : 5126,
            "count" : 6129,
            "type" : "VEC3"
        },
        {
            "bufferView" : 24,
            "componentType" : 5126,
            "count" : 6129,
            "type" : "VEC2"
        },
        {
            "bufferView" : 25,
            "componentType" : 5126,
            "count" : 6129,
            "type" : "VEC2"
        },
        {
            "bufferView" : 26,
            "componentType" : 5126,
            "count" : 6129,
            "type" : "VEC2"
        },
        {
            "bufferView" : 27,
            "componentType" : 5126,
            "count" : 6129,
            "type" : "VEC2"
        },
        {
            "bufferView" : 28,
            "componentType" : 5123,
            "count" : 6129,
            "normalized" : true,
            "type" : "VEC4"
        },
        {
            "bufferView" : 29,
            "componentType" : 5123,
            "count" : 32136,
            "type" : "SCALAR"
        },
        {
            "bufferView" : 30,
            "componentType" : 5126,
            "count" : 1975,
            "max" : [
                64.55152893066406,
                42.23863983154297,
                281.9384765625
            ],
            "min" : [
                -64.49695587158203,
                -45.25815963745117,
                -47.9136962890625
            ],
            "type" : "VEC3"
        },
        {
            "bufferView" : 31,
            "componentType" : 5126,
            "count" : 1975,
            "type" : "VEC3"
        },
        {
            "bufferView" : 32,
            "componentType" : 5126,
            "count" : 1975,
            "type" : "VEC2"
        },
        {
            "bufferView" : 33,
            "componentType" : 5123,
            "count" : 10056,
            "type" : "SCALAR"
        },
        {
            "bufferView" : 34,
            "componentType" : 5126,
            "count" : 4096,
            "max" : [
                50.75709533691406,
                55.421695709228516,
                18.44891357421875
            ],
            "min" : [
                -50.757057189941406,
                -33.467926025390625,
                -13.760528564453125
            ],
            "type" : "VEC3"
        },
        {
            "bufferView" : 35,
            "componentType" : 5126,
            "count" : 4096,
            "type" : "VEC3"
        },
        {
            "bufferView" : 36,
            "componentType" : 5126,
            "count" : 4096,
            "type" : "VEC2"
        },
        {
            "bufferView" : 37,
            "componentType" : 5123,
            "count" : 23364,
            "type" : "SCALAR"
        },
        {
            "bufferView" : 38,
            "componentType" : 5126,
            "count" : 1773,
            "max" : [
                42.19023895263672,
                71.85519409179688,
                60.33489990234375
            ],
            "min" : [
                -48.105438232421875,
                -89.37435913085938,
                -49.6705322265625
            ],
            "type" : "VEC3"
        },
        {
            "bufferView" : 39,
            "componentType" : 5126,
            "count" : 1773,
            "type" : "VEC3"
        },
        {
            "bufferView" : 40,
            "componentType" : 5126,
            "count" : 1773,
            "type" : "VEC2"
        },
        {
            "bufferView" : 41,
            "componentType" : 5126,
            "count" : 1773,
            "type" : "VEC2"
        },
        {
            "bufferView" : 42,
            "componentType" : 5123,
            "count" : 1773,
            "normalized" : true,
            "type" : "VEC4"
        },
        {
            "bufferView" : 43,
            "componentType" : 5123,
            "count" : 7686,
            "type" : "SCALAR"
        }
    ],
    "bufferViews" : [
        {
            "buffer" : 0,
            "byteLength" : 15504,
            "byteOffset" : 0
        },
        {
            "buffer" : 0,
            "byteLength" : 15504,
            "byteOffset" : 15504
        },
        {
            "buffer" : 0,
            "byteLength" : 10336,
            "byteOffset" : 31008
        },
        {
            "buffer" : 0,
            "byteLength" : 10336,
            "byteOffset" : 41344
        },
        {
            "buffer" : 0,
            "byteLength" : 10336,
            "byteOffset" : 51680
        },
        {
            "buffer" : 0,
            "byteLength" : 13032,
            "byteOffset" : 62016
        },
        {
            "buffer" : 0,
            "byteLength" : 792,
            "byteOffset" : 75048
        },
        {
            "buffer" : 0,
            "byteLength" : 792,
            "byteOffset" : 75840
        },
        {
            "buffer" : 0,
            "byteLength" : 528,
            "byteOffset" : 76632
        },
        {
            "buffer" : 0,
            "byteLength" : 528,
            "byteOffset" : 77160
        },
        {
            "buffer" : 0,
            "byteLength" : 528,
            "byteOffset" : 77688
        },
        {
            "buffer" : 0,
            "byteLength" : 384,
            "byteOffset" : 78216
        },
        {
            "buffer" : 0,
            "byteLength" : 9924,
            "byteOffset" : 78600
        },
        {
            "buffer" : 0,
            "byteLength" : 9924,
            "byteOffset" : 88524
        },
        {
            "buffer" : 0,
            "byteLength" : 6616,
            "byteOffset" : 98448
        },
        {
            "buffer" : 0,
            "byteLength" : 6616,
            "byteOffset" : 105064
        },
        {
            "buffer" : 0,
            "byteLength" : 6616,
            "byteOffset" : 111680
        },
        {
            "buffer" : 0,
            "byteLength" : 8904,
            "byteOffset" : 118296
        },
        {
            "buffer" : 0,
            "byteLength" : 21876,
            "byteOffset" : 127200
        },
        {
            "buffer" : 0,
            "byteLength" : 21876,
            "byteOffset" : 149076
        },
        {
            "buffer" : 0,
            "byteLength" : 14584,
            "byteOffset" : 170952
        },
        {
            "buffer" : 0,
            "byteLength" : 18144,
            "byteOffset" : 185536
        },
        {
            "buffer" : 0,
            "byteLength" : 73548,
            "byteOffset" : 203680
        },
        {
            "buffer" : 0,
            "byteLength" : 73548,
            "byteOffset" : 277228
        },
        {
            "buffer" : 0,
            "byteLength" : 49032,
            "byteOffset" : 350776
        },
        {
            "buffer" : 0,
            "byteLength" : 49032,
            "byteOffset" : 399808
        },
        {
            "buffer" : 0,
            "byteLength" : 49032,
            "byteOffset" : 448840
        },
        {
            "buffer" : 0,
            "byteLength" : 49032,
            "byteOffset" : 497872
        },
        {
            "buffer" : 0,
            "byteLength" : 49032,
            "byteOffset" : 546904
        },
        {
            "buffer" : 0,
            "byteLength" : 64272,
            "byteOffset" : 595936
        },
        {
            "buffer" : 0,
            "byteLength" : 23700,
            "byteOffset" : 660208
        },
        {
            "buffer" : 0,
            "byteLength" : 23700,
            "byteOffset" : 683908
        },
        {
            "buffer" : 0,
            "byteLength" : 15800,
            "byteOffset" : 707608
        },
        {
            "buffer" : 0,
            "byteLength" : 20112,
            "byteOffset" : 723408
        },
        {
            "buffer" : 0,
            "byteLength" : 49152,
            "byteOffset" : 743520
        },
        {
            "buffer" : 0,
            "byteLength" : 49152,
            "byteOffset" : 792672
        },
        {
            "buffer" : 0,
            "byteLength" : 32768,
            "byteOffset" : 841824
        },
        {
            "buffer" : 0,
            "byteLength" : 46728,
            "byteOffset" : 874592
        },
        {
            "buffer" : 0,
            "byteLength" : 21276,
            "byteOffset" : 921320
        },
        {
            "buffer" : 0,
            "byteLength" : 21276,
            "byteOffset" : 942596
        },
        {
            "buffer" : 0,
            "byteLength" : 14184,
            "byteOffset" : 963872
        },
        {
            "buffer" : 0,
            "byteLength" : 14184,
            "byteOffset" : 978056
        },
        {
            "buffer" : 0,
            "byteLength" : 14184,
            "byteOffset" : 992240
        },
        {
            "buffer" : 0,
            "byteLength" : 15372,
            "byteOffset" : 1006424
        }
    ],
    "buffers" : [
        {
            "byteLength" : 1021796,
            "uri" : "data:application/octet-stream;base64,"
        }
    ]
}
