{
    "asset" : {
        "generator" : "Khronos glTF Blender I/O v1.6.16",
        "version" : "2.0"
    },
    "scene" : 0,
    "scenes" : [
        {
            "name" : "Scene",
            "nodes" : [
                0,
                1,
                2,
                3,
                4,
                5,
                6,
                7,
                8
            ]
        }
    ],
    "nodes" : [
        {
            "name" : "Light",
            "rotation" : [
                0.16907575726509094,
                0.7558803558349609,
                -0.27217137813568115,
                0.570947527885437
            ],
            "translation" : [
                4.076245307922363,
                5.903861999511719,
                -1.0054539442062378
            ]
        },
        {
            "name" : "Camera",
            "rotation" : [
                0.483536034822464,
                0.33687159419059753,
                -0.20870360732078552,
                0.7804827094078064
            ],
            "translation" : [
                7.358891487121582,
                4.958309173583984,
                6.925790786743164
            ]
        },
        {
            "mesh" : 0,
            "name" : "D_1",
            "rotation" : [
                0.7071068286895752,
                0,
                0,
                0.7071067094802856
            ],
            "scale" : [
                0.011606978252530098,
                0.011606978252530098,
                0.011606978252530098
            ]
        },
        {
            "mesh" : 1,
            "name" : "D_2",
            "rotation" : [
                0.7071068286895752,
                0,
                0,
                0.7071067094802856
            ],
            "scale" : [
                0.011606978252530098,
                0.011606978252530098,
                0.011606978252530098
            ]
        },
        {
            "mesh" : 2,
            "name" : "Shoes",
            "rotation" : [
                0.7071068286895752,
                0,
                0,
                0.7071067094802856
            ],
            "scale" : [
                0.011606978252530098,
                0.011606978252530098,
                0.011606978252530098
            ]
        },
        {
            "mesh" : 3,
            "name" : "Body",
            "rotation" : [
                0.7071068286895752,
                0,
                0,
                0.7071067094802856
            ],
            "scale" : [
                0.011606978252530098,
                0.011606978252530098,
                0.011606978252530098
            ]
        },
        {
            "mesh" : 4,
            "name" : "Brow",
            "rotation" : [
                0.7071068286895752,
                0,
                0,
                0.7071067094802856
            ],
            "scale" : [
                0.011606978252530098,
                0.011606978252530098,
                0.011606978252530098
            ]
        },
        {
            "mesh" : 5,
            "name" : "Eyes",
            "rotation" : [
                0.7071068286895752,
                0,
                0,
                0.7071067094802856
            ],
            "scale" : [
                0.011606978252530098,
                0.011606978252530098,
                0.011606978252530098
            ]
        },
        {
            "mesh" : 6,
            "name" : "Hair",
            "rotation" : [
                0.7071068286895752,
                0,
                0,
                0.7071067094802856
            ],
            "scale" : [
                0.011611510068178177,
                0.011611510068178177,
                0.011611510068178177
            ]
        }
    ],
    "materials" : [
        {
            "doubleSided" : true,
            "name" : "Material.006",
            "pbrMetallicRoughness" : {
                "baseColorFactor" : [
                    0.800000011920929,
                    0.800000011920929,
                    0.800000011920929,
                    1
                ],
                "metallicFactor" : 0,
                "roughnessFactor" : 0.5
            }
        },
        {
            "doubleSided" : true,
            "name" : "Material.005",
            "pbrMetallicRoughness" : {
                "baseColorFactor" : [
                    0.0010314254323020577,
                    0.0010314254323020577,
                    0.0010314254323020577,
                    1
                ],
                "metallicFactor" : 0,
                "roughnessFactor" : 0.5
            }
        },
        {
            "doubleSided" : true,
            "name" : "Material.007",
            "pbrMetallicRoughness" : {
                "baseColorFactor" : [
                    0.8000000715255737,
                    0.08513692766427994,
                    0.035327717661857605,
                    1
                ],
                "metallicFactor" : 0,
                "roughnessFactor" : 0.5
            }
        },
        {
            "doubleSided" : true,
            "name" : "Material.001",
            "pbrMetallicRoughness" : {
                "baseColorFactor" : [
                    0.8000000715255737,
                    0.7518500685691833,
                    0.33191171288490295,
                    1
                ],
                "metallicFactor" : 0,
                "roughnessFactor" : 0.5
            }
        },
        {
            "doubleSided" : true,
            "name" : "Material.003",
            "pbrMetallicRoughness" : {
                "baseColorFactor" : [
                    0,
                    0,
                    0,
                    1
                ],
                "metallicFactor" : 0,
                "roughnessFactor" : 0.5
            }
        },
        {
            "doubleSided" : true,
            "name" : "Material.002",
            "pbrMetallicRoughness" : {
                "baseColorFactor" : [
                    0.6383726596832275,
                    0.18221966922283173,
                    0.7742713093757629,
                    1
                ],
                "metallicFactor" : 0,
                "roughnessFactor" : 0.5
            }
        },
        {
            "doubleSided" : true,
            "name" : "Material.004",
            "pbrMetallicRoughness" : {
                "baseColorFactor" : [
                    0,
                    0,
                    0,
                    1
                ],
                "metallicFactor" : 0,
                "roughnessFactor" : 0.5
            }
        }
    ],
    "meshes" : [
        {
            "name" : "mesh.004",
            "primitives" : [
                {
                    "attributes" : {
                        "POSITION" : 0,
                        "NORMAL" : 1,
                        "TEXCOORD_0" : 2
                    },
                    "indices" : 3,
                    "material" : 0
                }
            ]
        },
        {
            "name" : "Vucud.006",
            "primitives" : [
                {
                    "attributes" : {
                        "POSITION" : 4,
                        "NORMAL" : 5,
                        "TEXCOORD_0" : 6,
                        "TEXCOORD_1" : 7,
                        "TEXCOORD_2" : 8,
                        "TEXCOORD_3" : 9,
                        "COLOR_0" : 10
                    },
                    "indices" : 11,
                    "material" : 1
                }
            ]
        },
        {
            "name" : "Plane.005",
            "primitives" : [
                {
                    "attributes" : {
                        "POSITION" : 12,
                        "NORMAL" : 13,
                        "TEXCOORD_0" : 14
                    },
                    "indices" : 15,
                    "material" : 2
                }
            ]
        },
        {
            "name" : "Vucud",
            "primitives" : [
                {
                    "attributes" : {
                        "POSITION" : 16,
                        "NORMAL" : 17,
                        "TEXCOORD_0" : 18,
                        "TEXCOORD_1" : 19,
                        "TEXCOORD_2" : 20,
                        "TEXCOORD_3" : 21,
                        "COLOR_0" : 22
                    },
                    "indices" : 23,
                    "material" : 3
                }
            ]
        },
        {
            "name" : "Sphere.003",
            "primitives" : [
                {
                    "attributes" : {
                        "POSITION" : 24,
                        "NORMAL" : 25,
                        "TEXCOORD_0" : 26,
                        "TEXCOORD_1" : 27,
                        "COLOR_0" : 28
                    },
                    "indices" : 29,
                    "material" : 4
                }
            ]
        },
        {
            "name" : "Sphere.006",
            "primitives" : [
                {
                    "attributes" : {
                        "POSITION" : 30,
                        "NORMAL" : 31,
                        "TEXCOORD_0" : 32
                    },
                    "indices" : 33,
                    "material" : 5
                }
            ]
        },
        {
            "name" : "mesh.001",
            "primitives" : [
                {
                    "attributes" : {
                        "POSITION" : 34,
                        "NORMAL" : 35,
                        "TEXCOORD_0" : 36
                    },
                    "indices" : 37,
                    "material" : 6
                }
            ]
        }
    ],
    "accessors" : [
        {
            "bufferView" : 0,
            "componentType" : 5126,
            "count" : 1738,
            "max" : [
                52.176570892333984,
                50.22847366333008,
                -3.50103759765625
            ],
            "min" : [
                -52.172706604003906,
                -40.834835052490234,
                -158.16159057617188
            ],
            "type" : "VEC3"
        },
        {
            "bufferView" : 1,
            "componentType" : 5126,
            "count" : 1738,
            "type" : "VEC3"
        },
        {
            "bufferView" : 2,
            "componentType" : 5126,
            "count" : 1738,
            "type" : "VEC2"
        },
        {
            "bufferView" : 3,
            "componentType" : 5123,
            "count" : 7317,
            "type" : "SCALAR"
        },
        {
            "bufferView" : 4,
            "componentType" : 5126,
            "count" : 1932,
            "max" : [
                64.43992614746094,
                39.32939910888672,
                303.041015625
            ],
            "min" : [
                -64.38875579833984,
                -43.688175201416016,
                -39.730560302734375
            ],
            "type" : "VEC3"
        },
        {
            "bufferView" : 5,
            "componentType" : 5126,
            "count" : 1932,
            "type" : "VEC3"
        },
        {
            "bufferView" : 6,
            "componentType" : 5126,
            "count" : 1932,
            "type" : "VEC2"
        },
        {
            "bufferView" : 7,
            "componentType" : 5126,
            "count" : 1932,
            "type" : "VEC2"
        },
        {
            "bufferView" : 8,
            "componentType" : 5126,
            "count" : 1932,
            "type" : "VEC2"
        },
        {
            "bufferView" : 9,
            "componentType" : 5126,
            "count" : 1932,
            "type" : "VEC2"
        },
        {
            "bufferView" : 10,
            "componentType" : 5123,
            "count" : 1932,
            "normalized" : true,
            "type" : "VEC4"
        },
        {
            "bufferView" : 11,
            "componentType" : 5123,
            "count" : 10668,
            "type" : "SCALAR"
        },
        {
            "bufferView" : 12,
            "componentType" : 5126,
            "count" : 3890,
            "max" : [
                52.1763916015625,
                51.82290267944336,
                360.6378173828125
            ],
            "min" : [
                -52.1252326965332,
                -40.212223052978516,
                327.4503173828125
            ],
            "type" : "VEC3"
        },
        {
            "bufferView" : 13,
            "componentType" : 5126,
            "count" : 3890,
            "type" : "VEC3"
        },
        {
            "bufferView" : 14,
            "componentType" : 5126,
            "count" : 3890,
            "type" : "VEC2"
        },
        {
            "bufferView" : 15,
            "componentType" : 5123,
            "count" : 19440,
            "type" : "SCALAR"
        },
        {
            "bufferView" : 16,
            "componentType" : 5126,
            "count" : 7903,
            "max" : [
                282.1252746582031,
                49.527435302734375,
                353.41448974609375
            ],
            "min" : [
                -282.0704345703125,
                -39.644203186035156,
                -259.1233215332031
            ],
            "type" : "VEC3"
        },
        {
            "bufferView" : 17,
            "componentType" : 5126,
            "count" : 7903,
            "type" : "VEC3"
        },
        {
            "bufferView" : 18,
            "componentType" : 5126,
            "count" : 7903,
            "type" : "VEC2"
        },
        {
            "bufferView" : 19,
            "componentType" : 5126,
            "count" : 7903,
            "type" : "VEC2"
        },
        {
            "bufferView" : 20,
            "componentType" : 5126,
            "count" : 7903,
            "type" : "VEC2"
        },
        {
            "bufferView" : 21,
            "componentType" : 5126,
            "count" : 7903,
            "type" : "VEC2"
        },
        {
            "bufferView" : 22,
            "componentType" : 5123,
            "count" : 7903,
            "normalized" : true,
            "type" : "VEC4"
        },
        {
            "bufferView" : 23,
            "componentType" : 5123,
            "count" : 42102,
            "type" : "SCALAR"
        },
        {
            "bufferView" : 24,
            "componentType" : 5126,
            "count" : 656,
            "max" : [
                26.692279815673828,
                40.78715515136719,
                -204.10244750976562
            ],
            "min" : [
                -26.637420654296875,
                29.063920974731445,
                -219.27261352539062
            ],
            "type" : "VEC3"
        },
        {
            "bufferView" : 25,
            "componentType" : 5126,
            "count" : 656,
            "type" : "VEC3"
        },
        {
            "bufferView" : 26,
            "componentType" : 5126,
            "count" : 656,
            "type" : "VEC2"
        },
        {
            "bufferView" : 27,
            "componentType" : 5126,
            "count" : 656,
            "type" : "VEC2"
        },
        {
            "bufferView" : 28,
            "componentType" : 5123,
            "count" : 656,
            "normalized" : true,
            "type" : "VEC4"
        },
        {
            "bufferView" : 29,
            "componentType" : 5123,
            "count" : 3552,
            "type" : "SCALAR"
        },
        {
            "bufferView" : 30,
            "componentType" : 5126,
            "count" : 1284,
            "max" : [
                24.983108520507812,
                33.452056884765625,
                -195.64883422851562
            ],
            "min" : [
                -24.92821502685547,
                15.011822700500488,
                -215.92599487304688
            ],
            "type" : "VEC3"
        },
        {
            "bufferView" : 31,
            "componentType" : 5126,
            "count" : 1284,
            "type" : "VEC3"
        },
        {
            "bufferView" : 32,
            "componentType" : 5126,
            "count" : 1284,
            "type" : "VEC2"
        },
        {
            "bufferView" : 33,
            "componentType" : 5123,
            "count" : 6324,
            "type" : "SCALAR"
        },
        {
            "bufferView" : 34,
            "componentType" : 5126,
            "count" : 2689,
            "max" : [
                37.0068473815918,
                42.473758697509766,
                -187.8831787109375
            ],
            "min" : [
                -37.3682975769043,
                -79.33612060546875,
                -282.0179443359375
            ],
            "type" : "VEC3"
        },
        {
            "bufferView" : 35,
            "componentType" : 5126,
            "count" : 2689,
            "type" : "VEC3"
        },
        {
            "bufferView" : 36,
            "componentType" : 5126,
            "count" : 2689,
            "type" : "VEC2"
        },
        {
            "bufferView" : 37,
            "componentType" : 5123,
            "count" : 8940,
            "type" : "SCALAR"
        }
    ],
    "bufferViews" : [
        {
            "buffer" : 0,
            "byteLength" : 20856,
            "byteOffset" : 0
        },
        {
            "buffer" : 0,
            "byteLength" : 20856,
            "byteOffset" : 20856
        },
        {
            "buffer" : 0,
            "byteLength" : 13904,
            "byteOffset" : 41712
        },
        {
            "buffer" : 0,
            "byteLength" : 14634,
            "byteOffset" : 55616
        },
        {
            "buffer" : 0,
            "byteLength" : 23184,
            "byteOffset" : 70252
        },
        {
            "buffer" : 0,
            "byteLength" : 23184,
            "byteOffset" : 93436
        },
        {
            "buffer" : 0,
            "byteLength" : 15456,
            "byteOffset" : 116620
        },
        {
            "buffer" : 0,
            "byteLength" : 15456,
            "byteOffset" : 132076
        },
        {
            "buffer" : 0,
            "byteLength" : 15456,
            "byteOffset" : 147532
        },
        {
            "buffer" : 0,
            "byteLength" : 15456,
            "byteOffset" : 162988
        },
        {
            "buffer" : 0,
            "byteLength" : 15456,
            "byteOffset" : 178444
        },
        {
            "buffer" : 0,
            "byteLength" : 21336,
            "byteOffset" : 193900
        },
        {
            "buffer" : 0,
            "byteLength" : 46680,
            "byteOffset" : 215236
        },
        {
            "buffer" : 0,
            "byteLength" : 46680,
            "byteOffset" : 261916
        },
        {
            "buffer" : 0,
            "byteLength" : 31120,
            "byteOffset" : 308596
        },
        {
            "buffer" : 0,
            "byteLength" : 38880,
            "byteOffset" : 339716
        },
        {
            "buffer" : 0,
            "byteLength" : 94836,
            "byteOffset" : 378596
        },
        {
            "buffer" : 0,
            "byteLength" : 94836,
            "byteOffset" : 473432
        },
        {
            "buffer" : 0,
            "byteLength" : 63224,
            "byteOffset" : 568268
        },
        {
            "buffer" : 0,
            "byteLength" : 63224,
            "byteOffset" : 631492
        },
        {
            "buffer" : 0,
            "byteLength" : 63224,
            "byteOffset" : 694716
        },
        {
            "buffer" : 0,
            "byteLength" : 63224,
            "byteOffset" : 757940
        },
        {
            "buffer" : 0,
            "byteLength" : 63224,
            "byteOffset" : 821164
        },
        {
            "buffer" : 0,
            "byteLength" : 84204,
            "byteOffset" : 884388
        },
        {
            "buffer" : 0,
            "byteLength" : 7872,
            "byteOffset" : 968592
        },
        {
            "buffer" : 0,
            "byteLength" : 7872,
            "byteOffset" : 976464
        },
        {
            "buffer" : 0,
            "byteLength" : 5248,
            "byteOffset" : 984336
        },
        {
            "buffer" : 0,
            "byteLength" : 5248,
            "byteOffset" : 989584
        },
        {
            "buffer" : 0,
            "byteLength" : 5248,
            "byteOffset" : 994832
        },
        {
            "buffer" : 0,
            "byteLength" : 7104,
            "byteOffset" : 1000080
        },
        {
            "buffer" : 0,
            "byteLength" : 15408,
            "byteOffset" : 1007184
        },
        {
            "buffer" : 0,
            "byteLength" : 15408,
            "byteOffset" : 1022592
        },
        {
            "buffer" : 0,
            "byteLength" : 10272,
            "byteOffset" : 1038000
        },
        {
            "buffer" : 0,
            "byteLength" : 12648,
            "byteOffset" : 1048272
        },
        {
            "buffer" : 0,
            "byteLength" : 32268,
            "byteOffset" : 1060920
        },
        {
            "buffer" : 0,
            "byteLength" : 32268,
            "byteOffset" : 1093188
        },
        {
            "buffer" : 0,
            "byteLength" : 21512,
            "byteOffset" : 1125456
        },
        {
            "buffer" : 0,
            "byteLength" : 17880,
            "byteOffset" : 1146968
        }
    ],
    "buffers" : [
        {
            "byteLength" : 1164848,
            "uri" : "data:application/octet-stream;base64,"
        }
    ]
}
